{"accessors":[{"bufferView":0,"componentType":5126,"count":180,"min":[0.0],"max":[5.9666667],"type":"SCALAR","name":"accessorAnimationInput"},{"bufferView":1,"componentType":5126,"count":180,"type":"VEC3","name":"accessorAnimationPositions"},{"bufferView":0,"byteOffset":720,"componentType":5126,"count":180,"min":[0.0],"max":[5.9666667],"type":"SCALAR","name":"accessorAnimationInput"},{"bufferView":2,"componentType":5126,"count":180,"type":"VEC4","name":"accessorAnimationRotations"},{"bufferView":0,"byteOffset":1440,"componentType":5126,"count":180,"min":[0.0],"max":[5.9666667],"type":"SCALAR","name":"accessorAnimationInput"},{"bufferView":1,"byteOffset":2160,"componentType":5126,"count":180,"type":"VEC3","name":"accessorAnimationPositions"},{"bufferView":0,"byteOffset":2160,"componentType":5126,"count":180,"min":[0.0],"max":[5.9666667],"type":"SCALAR","name":"accessorAnimationInput"},{"bufferView":2,"byteOffset":2880,"componentType":5126,"count":180,"type":"VEC4","name":"accessorAnimationRotations"},{"bufferView":0,"byteOffset":2880,"componentType":5126,"count":180,"min":[0.0],"max":[5.9666667],"type":"SCALAR","name":"accessorAnimationInput"},{"bufferView":1,"byteOffset":4320,"componentType":5126,"count":180,"type":"VEC3","name":"accessorAnimationScales"},{"bufferView":0,"byteOffset":3600,"componentType":5126,"count":76,"min":[0.0],"max":[2.5],"type":"SCALAR","name":"accessorAnimationInput"},{"bufferView":1,"byteOffset":6480,"componentType":5126,"count":76,"type":"VEC3","name":"accessorAnimationPositions"},{"bufferView":0,"byteOffset":3904,"componentType":5126,"count":76,"min":[0.0],"max":[2.5],"type":"SCALAR","name":"accessorAnimationInput"},{"bufferView":2,"byteOffset":5760,"componentType":5126,"count":76,"type":"VEC4","name":"accessorAnimationRotations"}],"animations":[{"name":"MenuTransition","channels":[{"sampler":0,"target":{"node":3,"path":"translation"}},{"sampler":1,"target":{"node":3,"path":"rotation"}},{"sampler":2,"target":{"node":0,"path":"translation"}},{"sampler":3,"target":{"node":0,"path":"rotation"}},{"sampler":4,"target":{"node":0,"path":"scale"}}],"samplers":[{"input":0,"output":1,"interpolation":"LINEAR"},{"input":2,"output":3,"interpolation":"LINEAR"},{"input":4,"output":5,"interpolation":"LINEAR"},{"input":6,"output":7,"interpolation":"LINEAR"},{"input":8,"output":9,"interpolation":"LINEAR"}]},{"name":"HangarTransition","channels":[{"sampler":0,"target":{"node":4,"path":"translation"}},{"sampler":1,"target":{"node":4,"path":"rotation"}}],"samplers":[{"input":10,"output":11,"interpolation":"LINEAR"},{"input":12,"output":13,"interpolation":"LINEAR"}]}],"asset":{"generator":"babylon.jsglTFexporterfor3dsmax2019v1.5.0","version":"2.0","extensions":{"ASOBO_asset_optimized":{"MajorVersion":4,"MinorVersion":4},"ASOBO_normal_map_convention":{"tangent_space_convention":"DirectX"}}},"bufferViews":[{"buffer":0,"byteLength":4208,"name":"bufferViewAnimationFloatScalar"},{"buffer":0,"byteLength":7392,"byteOffset":4208,"name":"bufferViewAnimationFloatVec3"},{"buffer":0,"byteLength":6976,"byteOffset":11600,"name":"bufferViewAnimationFloatVec4"}],"nodes":[{"translation":[0.0,-1.80210483,-1.0],"rotation":[-0.0462936349,-0.839900851,0.535872,-0.072558485],"scale":[0.99999994,0.9999999,0.99999994],"name":"MenuTransition_TARGET"},{"translation":[0.00000190734863,-1.80210578,-0.999998152],"rotation":[0.5557908,0.277845562,-0.204141572,0.756455362],"scale":[1.0,1.0,1.0],"name":"HangarTransition_TARGET"},{"translation":[0.0,0.0,0.0],"rotation":[0.0,0.0,0.0,1.0],"scale":[1.0,1.0,1.0],"name":"Defaultlight"},{"translation":[-6.999138,3.03383946,9.707849],"rotation":[-0.172253609,-0.28079313,-0.0513026863,0.942789435],"scale":[0.990417659,0.990417659,0.990417659],"camera":0,"name":"MenuTransition_CAMERA"},{"translation":[8.076113,3.0338397,8.889949],"rotation":[-0.169585645,0.330253363,0.060445115,0.926563442],"scale":[1.0,1.0,0.99999994],"camera":1,"name":"HangarTransition_CAMERA"}],"scene":0,"scenes":[{"nodes":[0,1,2,3,4]}],"cameras":[{"type":"perspective","name":"MenuTransition_CAMERA","perspective":{"zfar":1000.0,"znear":1.0,"yfov":0.721483648}},{"type":"perspective","name":"HangarTransition_CAMERA","perspective":{"zfar":1000.0,"znear":1.0,"yfov":0.721483648}}],"extensionsUsed":["ASOBO_normal_map_convention","ASOBO_asset_optimized"],"buffers":[{"byteLength":18576,"uri":"Menu_Transition_Oneshot.bin"}]}
