{"accessors":[{"bufferView":0,"componentType":5126,"count":101,"min":[0.0],"max":[3.33333325],"type":"SCALAR","name":"accessorAnimationInput"},{"bufferView":1,"componentType":5126,"count":101,"type":"VEC3","name":"accessorAnimationPositions"},{"bufferView":0,"byteOffset":404,"componentType":5126,"count":101,"min":[0.0],"max":[3.33333325],"type":"SCALAR","name":"accessorAnimationInput"},{"bufferView":2,"componentType":5126,"count":101,"type":"VEC4","name":"accessorAnimationRotations"},{"bufferView":0,"byteOffset":808,"componentType":5126,"count":101,"min":[0.0],"max":[3.33333325],"type":"SCALAR","name":"accessorAnimationInput"},{"bufferView":1,"byteOffset":1212,"componentType":5126,"count":101,"type":"VEC3","name":"accessorAnimationPositions"},{"bufferView":0,"byteOffset":1212,"componentType":5126,"count":101,"min":[0.0],"max":[3.33333325],"type":"SCALAR","name":"accessorAnimationInput"},{"bufferView":1,"byteOffset":2424,"componentType":5126,"count":101,"type":"VEC3","name":"accessorAnimationPositions"},{"bufferView":0,"byteOffset":1616,"componentType":5126,"count":101,"min":[0.0],"max":[3.33333325],"type":"SCALAR","name":"accessorAnimationInput"},{"bufferView":2,"byteOffset":1616,"componentType":5126,"count":101,"type":"VEC4","name":"accessorAnimationRotations"},{"bufferView":0,"byteOffset":2020,"componentType":5126,"count":101,"min":[0.0],"max":[3.33333325],"type":"SCALAR","name":"accessorAnimationInput"},{"bufferView":1,"byteOffset":3636,"componentType":5126,"count":101,"type":"VEC3","name":"accessorAnimationPositions"},{"bufferView":0,"byteOffset":2424,"componentType":5126,"count":101,"min":[0.0],"max":[3.33333325],"type":"SCALAR","name":"accessorAnimationInput"},{"bufferView":1,"byteOffset":4848,"componentType":5126,"count":101,"type":"VEC3","name":"accessorAnimationPositions"},{"bufferView":0,"byteOffset":2828,"componentType":5126,"count":101,"min":[0.0],"max":[3.33333325],"type":"SCALAR","name":"accessorAnimationInput"},{"bufferView":2,"byteOffset":3232,"componentType":5126,"count":101,"type":"VEC4","name":"accessorAnimationRotations"},{"bufferView":0,"byteOffset":3232,"componentType":5126,"count":101,"min":[0.0],"max":[3.33333325],"type":"SCALAR","name":"accessorAnimationInput"},{"bufferView":1,"byteOffset":6060,"componentType":5126,"count":101,"type":"VEC3","name":"accessorAnimationPositions"},{"bufferView":0,"byteOffset":3636,"componentType":5126,"count":101,"min":[0.0],"max":[3.33333325],"type":"SCALAR","name":"accessorAnimationInput"},{"bufferView":1,"byteOffset":7272,"componentType":5126,"count":101,"type":"VEC3","name":"accessorAnimationPositions"},{"bufferView":0,"byteOffset":4040,"componentType":5126,"count":101,"min":[0.0],"max":[3.33333325],"type":"SCALAR","name":"accessorAnimationInput"},{"bufferView":2,"byteOffset":4848,"componentType":5126,"count":101,"type":"VEC4","name":"accessorAnimationRotations"},{"bufferView":0,"byteOffset":4444,"componentType":5126,"count":101,"min":[0.0],"max":[3.33333325],"type":"SCALAR","name":"accessorAnimationInput"},{"bufferView":1,"byteOffset":8484,"componentType":5126,"count":101,"type":"VEC3","name":"accessorAnimationPositions"}],"animations":[{"name":"WOWFLAPS01","channels":[{"sampler":0,"target":{"node":6,"path":"translation"}},{"sampler":1,"target":{"node":6,"path":"rotation"}},{"sampler":2,"target":{"node":1,"path":"translation"}}],"samplers":[{"input":0,"output":1,"interpolation":"LINEAR"},{"input":2,"output":3,"interpolation":"LINEAR"},{"input":4,"output":5,"interpolation":"LINEAR"}]},{"name":"WOWFLAPS02","channels":[{"sampler":0,"target":{"node":5,"path":"translation"}},{"sampler":1,"target":{"node":5,"path":"rotation"}},{"sampler":2,"target":{"node":0,"path":"translation"}}],"samplers":[{"input":6,"output":7,"interpolation":"LINEAR"},{"input":8,"output":9,"interpolation":"LINEAR"},{"input":10,"output":11,"interpolation":"LINEAR"}]},{"name":"WOWFLAPS03","channels":[{"sampler":0,"target":{"node":8,"path":"translation"}},{"sampler":1,"target":{"node":8,"path":"rotation"}},{"sampler":2,"target":{"node":3,"path":"translation"}}],"samplers":[{"input":12,"output":13,"interpolation":"LINEAR"},{"input":14,"output":15,"interpolation":"LINEAR"},{"input":16,"output":17,"interpolation":"LINEAR"}]},{"name":"WOWFLAPS04","channels":[{"sampler":0,"target":{"node":7,"path":"translation"}},{"sampler":1,"target":{"node":7,"path":"rotation"}},{"sampler":2,"target":{"node":2,"path":"translation"}}],"samplers":[{"input":18,"output":19,"interpolation":"LINEAR"},{"input":20,"output":21,"interpolation":"LINEAR"},{"input":22,"output":23,"interpolation":"LINEAR"}]}],"asset":{"generator":"babylon.jsglTFexporterfor3dsmax2019v1.5.0","version":"2.0","extensions":{"ASOBO_asset_optimized":{"MajorVersion":4,"MinorVersion":4},"ASOBO_normal_map_convention":{"tangent_space_convention":"DirectX"}}},"bufferViews":[{"buffer":0,"byteLength":4848,"name":"bufferViewAnimationFloatScalar"},{"buffer":0,"byteLength":9696,"byteOffset":4848,"name":"bufferViewAnimationFloatVec3"},{"buffer":0,"byteLength":6464,"byteOffset":14544,"name":"bufferViewAnimationFloatVec4"}],"nodes":[{"translation":[4.238186,2.688965,-2.08974171],"rotation":[0.0,0.0,0.0,1.0],"scale":[1.0,1.0,1.0],"name":"WOWFLAPS02_TARGET"},{"translation":[4.238186,1.75138354,-1.82807684],"rotation":[0.0,0.0,0.0,1.0],"scale":[1.0,1.0,1.0],"name":"WOWFLAPS01_TARGET"},{"translation":[-1.59738541,2.45315838,-1.82807684],"rotation":[0.0,0.0,0.0,1.0],"scale":[1.0,1.0,1.0],"name":"WOWFLAPS04_TARGET"},{"translation":[-2.387745,2.45315838,-1.19965124],"rotation":[0.0,0.0,0.0,1.0],"scale":[1.0,1.0,1.0],"name":"WOWFLAPS03_TARGET"},{"translation":[0.0,0.0,0.0],"rotation":[0.0,0.0,0.0,1.0],"scale":[1.0,1.0,1.0],"name":"Defaultlight"},{"translation":[0.94181335,2.12471867,-0.408784151],"rotation":[0.06445739,-0.520863235,0.0394849181,0.850286841],"scale":[1.0,0.99999994,1.0],"camera":0,"name":"WOWFLAPS02_CAMERA"},{"translation":[0.449469626,2.79726624,-1.16325963],"rotation":[-0.101351112,-0.6374475,-0.0851152241,0.759041548],"scale":[0.99999994,0.99999994,1.0],"camera":1,"name":"WOWFLAPS01_CAMERA"},{"translation":[-5.95975,2.50621819,-0.695563138],"rotation":[-0.00465574861,-0.611838937,-0.003601402,0.79096055],"scale":[1.0,1.0,0.99999994],"camera":2,"name":"WOWFLAPS04_CAMERA"},{"translation":[-1.0297482,0.564334869,0.213060141],"rotation":[-0.34709084,-0.346408755,0.139771372,-0.8602284],"scale":[1.0,1.0,1.0],"camera":3,"name":"WOWFLAPS03_CAMERA"}],"scene":0,"scenes":[{"nodes":[0,1,2,3,4,5,6,7,8],"extensions":{"KHR_lights":{"light":0}}}],"cameras":[{"type":"perspective","name":"WOWFLAPS02_CAMERA","perspective":{"zfar":10000.0,"znear":0.1,"yfov":0.809989333}},{"type":"perspective","name":"WOWFLAPS01_CAMERA","perspective":{"zfar":10000.0,"znear":0.1,"yfov":0.809989333}},{"type":"perspective","name":"WOWFLAPS04_CAMERA","perspective":{"zfar":10000.0,"znear":0.1,"yfov":0.809989333}},{"type":"perspective","name":"WOWFLAPS03_CAMERA","perspective":{"zfar":10000.0,"znear":0.1,"yfov":0.809989333}}],"extensions":{"KHR_lights":{"lights":[{"color":[1.0,1.0,1.0],"intensity":1.0,"type":"ambient"}]}},"extensionsUsed":["ASOBO_normal_map_convention","ASOBO_asset_optimized"],"buffers":[{"byteLength":21008,"uri":"PlaneShowcase_WOW.bin"}]}
