{"accessors":[{"bufferView":0,"componentType":5126,"count":161,"min":[0.0],"max":[5.33333349],"type":"SCALAR","name":"accessorAnimationInput"},{"bufferView":1,"componentType":5126,"count":161,"type":"VEC3","name":"accessorAnimationPositions"},{"bufferView":0,"byteOffset":644,"componentType":5126,"count":161,"min":[0.0],"max":[5.33333349],"type":"SCALAR","name":"accessorAnimationInput"},{"bufferView":2,"componentType":5126,"count":161,"type":"VEC4","name":"accessorAnimationRotations"},{"bufferView":0,"byteOffset":1288,"componentType":5126,"count":161,"min":[0.0],"max":[5.33333349],"type":"SCALAR","name":"accessorAnimationInput"},{"bufferView":1,"byteOffset":1932,"componentType":5126,"count":161,"type":"VEC3","name":"accessorAnimationPositions"},{"bufferView":0,"byteOffset":1932,"componentType":5126,"count":161,"min":[0.0],"max":[5.33333349],"type":"SCALAR","name":"accessorAnimationInput"},{"bufferView":2,"byteOffset":2576,"componentType":5126,"count":161,"type":"VEC4","name":"accessorAnimationRotations"},{"bufferView":0,"byteOffset":2576,"componentType":5126,"count":161,"min":[0.0],"max":[5.33333349],"type":"SCALAR","name":"accessorAnimationInput"},{"bufferView":1,"byteOffset":3864,"componentType":5126,"count":161,"type":"VEC3","name":"accessorAnimationScales"},{"bufferView":0,"byteOffset":3220,"componentType":5126,"count":161,"min":[0.0],"max":[5.33333349],"type":"SCALAR","name":"accessorAnimationInput"},{"bufferView":1,"byteOffset":5796,"componentType":5126,"count":161,"type":"VEC3","name":"accessorAnimationPositions"},{"bufferView":0,"byteOffset":3864,"componentType":5126,"count":161,"min":[0.0],"max":[5.33333349],"type":"SCALAR","name":"accessorAnimationInput"},{"bufferView":2,"byteOffset":5152,"componentType":5126,"count":161,"type":"VEC4","name":"accessorAnimationRotations"},{"bufferView":0,"byteOffset":4508,"componentType":5126,"count":161,"min":[0.0],"max":[5.33333349],"type":"SCALAR","name":"accessorAnimationInput"},{"bufferView":1,"byteOffset":7728,"componentType":5126,"count":161,"type":"VEC3","name":"accessorAnimationPositions"},{"bufferView":0,"byteOffset":5152,"componentType":5126,"count":161,"min":[0.0],"max":[5.33333349],"type":"SCALAR","name":"accessorAnimationInput"},{"bufferView":2,"byteOffset":7728,"componentType":5126,"count":161,"type":"VEC4","name":"accessorAnimationRotations"},{"bufferView":0,"byteOffset":5796,"componentType":5126,"count":161,"min":[0.0],"max":[5.33333349],"type":"SCALAR","name":"accessorAnimationInput"},{"bufferView":1,"byteOffset":9660,"componentType":5126,"count":161,"type":"VEC3","name":"accessorAnimationScales"},{"bufferView":0,"byteOffset":6440,"componentType":5126,"count":201,"min":[0.0],"max":[6.66666651],"type":"SCALAR","name":"accessorAnimationInput"},{"bufferView":1,"byteOffset":11592,"componentType":5126,"count":201,"type":"VEC3","name":"accessorAnimationPositions"},{"bufferView":0,"byteOffset":7244,"componentType":5126,"count":201,"min":[0.0],"max":[6.66666651],"type":"SCALAR","name":"accessorAnimationInput"},{"bufferView":2,"byteOffset":10304,"componentType":5126,"count":201,"type":"VEC4","name":"accessorAnimationRotations"},{"bufferView":0,"byteOffset":8048,"componentType":5126,"count":201,"min":[0.0],"max":[6.66666651],"type":"SCALAR","name":"accessorAnimationInput"},{"bufferView":1,"byteOffset":14004,"componentType":5126,"count":201,"type":"VEC3","name":"accessorAnimationPositions"},{"bufferView":0,"byteOffset":8852,"componentType":5126,"count":201,"min":[0.0],"max":[6.66666651],"type":"SCALAR","name":"accessorAnimationInput"},{"bufferView":2,"byteOffset":13520,"componentType":5126,"count":201,"type":"VEC4","name":"accessorAnimationRotations"},{"bufferView":0,"byteOffset":9656,"componentType":5126,"count":201,"min":[0.0],"max":[6.66666651],"type":"SCALAR","name":"accessorAnimationInput"},{"bufferView":1,"byteOffset":16416,"componentType":5126,"count":201,"type":"VEC3","name":"accessorAnimationScales"},{"bufferView":0,"byteOffset":10460,"componentType":5126,"count":161,"min":[0.0],"max":[5.33333349],"type":"SCALAR","name":"accessorAnimationInput"},{"bufferView":1,"byteOffset":18828,"componentType":5126,"count":161,"type":"VEC3","name":"accessorAnimationPositions"},{"bufferView":0,"byteOffset":11104,"componentType":5126,"count":161,"min":[0.0],"max":[5.33333349],"type":"SCALAR","name":"accessorAnimationInput"},{"bufferView":2,"byteOffset":16736,"componentType":5126,"count":161,"type":"VEC4","name":"accessorAnimationRotations"},{"bufferView":0,"byteOffset":11748,"componentType":5126,"count":161,"min":[0.0],"max":[5.33333349],"type":"SCALAR","name":"accessorAnimationInput"},{"bufferView":1,"byteOffset":20760,"componentType":5126,"count":161,"type":"VEC3","name":"accessorAnimationPositions"},{"bufferView":0,"byteOffset":12392,"componentType":5126,"count":141,"min":[0.0],"max":[4.66666651],"type":"SCALAR","name":"accessorAnimationInput"},{"bufferView":1,"byteOffset":22692,"componentType":5126,"count":141,"type":"VEC3","name":"accessorAnimationPositions"},{"bufferView":0,"byteOffset":12956,"componentType":5126,"count":141,"min":[0.0],"max":[4.66666651],"type":"SCALAR","name":"accessorAnimationInput"},{"bufferView":2,"byteOffset":19312,"componentType":5126,"count":141,"type":"VEC4","name":"accessorAnimationRotations"},{"bufferView":0,"byteOffset":13520,"componentType":5126,"count":141,"min":[0.0],"max":[4.66666651],"type":"SCALAR","name":"accessorAnimationInput"},{"bufferView":1,"byteOffset":24384,"componentType":5126,"count":141,"type":"VEC3","name":"accessorAnimationPositions"},{"bufferView":0,"byteOffset":14084,"componentType":5126,"count":141,"min":[0.0],"max":[4.66666651],"type":"SCALAR","name":"accessorAnimationInput"},{"bufferView":2,"byteOffset":21568,"componentType":5126,"count":141,"type":"VEC4","name":"accessorAnimationRotations"},{"bufferView":0,"byteOffset":14648,"componentType":5126,"count":141,"min":[0.0],"max":[4.66666651],"type":"SCALAR","name":"accessorAnimationInput"},{"bufferView":1,"byteOffset":26076,"componentType":5126,"count":141,"type":"VEC3","name":"accessorAnimationScales"},{"bufferView":0,"byteOffset":15212,"componentType":5126,"count":161,"min":[0.0],"max":[5.33333349],"type":"SCALAR","name":"accessorAnimationInput"},{"bufferView":1,"byteOffset":27768,"componentType":5126,"count":161,"type":"VEC3","name":"accessorAnimationPositions"},{"bufferView":0,"byteOffset":15856,"componentType":5126,"count":161,"min":[0.0],"max":[5.33333349],"type":"SCALAR","name":"accessorAnimationInput"},{"bufferView":2,"byteOffset":23824,"componentType":5126,"count":161,"type":"VEC4","name":"accessorAnimationRotations"},{"bufferView":0,"byteOffset":16500,"componentType":5126,"count":161,"min":[0.0],"max":[5.33333349],"type":"SCALAR","name":"accessorAnimationInput"},{"bufferView":1,"byteOffset":29700,"componentType":5126,"count":161,"type":"VEC3","name":"accessorAnimationPositions"},{"bufferView":0,"byteOffset":17144,"componentType":5126,"count":161,"min":[0.0],"max":[5.33333349],"type":"SCALAR","name":"accessorAnimationInput"},{"bufferView":2,"byteOffset":26400,"componentType":5126,"count":161,"type":"VEC4","name":"accessorAnimationRotations"},{"bufferView":0,"byteOffset":17788,"componentType":5126,"count":161,"min":[0.0],"max":[5.33333349],"type":"SCALAR","name":"accessorAnimationInput"},{"bufferView":1,"byteOffset":31632,"componentType":5126,"count":161,"type":"VEC3","name":"accessorAnimationScales"},{"bufferView":0,"byteOffset":18432,"componentType":5126,"count":161,"min":[0.0],"max":[5.33333349],"type":"SCALAR","name":"accessorAnimationInput"},{"bufferView":1,"byteOffset":33564,"componentType":5126,"count":161,"type":"VEC3","name":"accessorAnimationPositions"},{"bufferView":0,"byteOffset":19076,"componentType":5126,"count":161,"min":[0.0],"max":[5.33333349],"type":"SCALAR","name":"accessorAnimationInput"},{"bufferView":2,"byteOffset":28976,"componentType":5126,"count":161,"type":"VEC4","name":"accessorAnimationRotations"},{"bufferView":0,"byteOffset":19720,"componentType":5126,"count":161,"min":[0.0],"max":[5.33333349],"type":"SCALAR","name":"accessorAnimationInput"},{"bufferView":1,"byteOffset":35496,"componentType":5126,"count":161,"type":"VEC3","name":"accessorAnimationPositions"},{"bufferView":0,"byteOffset":20364,"componentType":5126,"count":161,"min":[0.0],"max":[5.33333349],"type":"SCALAR","name":"accessorAnimationInput"},{"bufferView":2,"byteOffset":31552,"componentType":5126,"count":161,"type":"VEC4","name":"accessorAnimationRotations"},{"bufferView":0,"byteOffset":21008,"componentType":5126,"count":161,"min":[0.0],"max":[5.33333349],"type":"SCALAR","name":"accessorAnimationInput"},{"bufferView":1,"byteOffset":37428,"componentType":5126,"count":161,"type":"VEC3","name":"accessorAnimationScales"},{"bufferView":0,"byteOffset":21652,"componentType":5126,"count":161,"min":[0.0],"max":[5.33333349],"type":"SCALAR","name":"accessorAnimationInput"},{"bufferView":1,"byteOffset":39360,"componentType":5126,"count":161,"type":"VEC3","name":"accessorAnimationPositions"},{"bufferView":0,"byteOffset":22296,"componentType":5126,"count":161,"min":[0.0],"max":[5.33333349],"type":"SCALAR","name":"accessorAnimationInput"},{"bufferView":2,"byteOffset":34128,"componentType":5126,"count":161,"type":"VEC4","name":"accessorAnimationRotations"},{"bufferView":0,"byteOffset":22940,"componentType":5126,"count":161,"min":[0.0],"max":[5.33333349],"type":"SCALAR","name":"accessorAnimationInput"},{"bufferView":1,"byteOffset":41292,"componentType":5126,"count":161,"type":"VEC3","name":"accessorAnimationPositions"},{"bufferView":0,"byteOffset":23584,"componentType":5126,"count":161,"min":[0.0],"max":[5.33333349],"type":"SCALAR","name":"accessorAnimationInput"},{"bufferView":2,"byteOffset":36704,"componentType":5126,"count":161,"type":"VEC4","name":"accessorAnimationRotations"},{"bufferView":0,"byteOffset":24228,"componentType":5126,"count":161,"min":[0.0],"max":[5.33333349],"type":"SCALAR","name":"accessorAnimationInput"},{"bufferView":1,"byteOffset":43224,"componentType":5126,"count":161,"type":"VEC3","name":"accessorAnimationScales"},{"bufferView":0,"byteOffset":24872,"componentType":5126,"count":181,"min":[0.0],"max":[6.0],"type":"SCALAR","name":"accessorAnimationInput"},{"bufferView":1,"byteOffset":45156,"componentType":5126,"count":181,"type":"VEC3","name":"accessorAnimationPositions"},{"bufferView":0,"byteOffset":25596,"componentType":5126,"count":181,"min":[0.0],"max":[6.0],"type":"SCALAR","name":"accessorAnimationInput"},{"bufferView":2,"byteOffset":39280,"componentType":5126,"count":181,"type":"VEC4","name":"accessorAnimationRotations"},{"bufferView":0,"byteOffset":26320,"componentType":5126,"count":181,"min":[0.0],"max":[6.0],"type":"SCALAR","name":"accessorAnimationInput"},{"bufferView":1,"byteOffset":47328,"componentType":5126,"count":181,"type":"VEC3","name":"accessorAnimationPositions"},{"bufferView":0,"byteOffset":27044,"componentType":5126,"count":181,"min":[0.0],"max":[6.0],"type":"SCALAR","name":"accessorAnimationInput"},{"bufferView":2,"byteOffset":42176,"componentType":5126,"count":181,"type":"VEC4","name":"accessorAnimationRotations"},{"bufferView":0,"byteOffset":27768,"componentType":5126,"count":181,"min":[0.0],"max":[6.0],"type":"SCALAR","name":"accessorAnimationInput"},{"bufferView":1,"byteOffset":49500,"componentType":5126,"count":181,"type":"VEC3","name":"accessorAnimationScales"}],"animations":[{"name":"Cessna208B_Board01","channels":[{"sampler":0,"target":{"node":18,"path":"translation"}},{"sampler":1,"target":{"node":18,"path":"rotation"}},{"sampler":2,"target":{"node":9,"path":"translation"}},{"sampler":3,"target":{"node":9,"path":"rotation"}},{"sampler":4,"target":{"node":9,"path":"scale"}}],"samplers":[{"input":0,"output":1,"interpolation":"LINEAR"},{"input":2,"output":3,"interpolation":"LINEAR"},{"input":4,"output":5,"interpolation":"LINEAR"},{"input":6,"output":7,"interpolation":"LINEAR"},{"input":8,"output":9,"interpolation":"LINEAR"}]},{"name":"Cessna208B_Board02","channels":[{"sampler":0,"target":{"node":17,"path":"translation"}},{"sampler":1,"target":{"node":17,"path":"rotation"}},{"sampler":2,"target":{"node":8,"path":"translation"}},{"sampler":3,"target":{"node":8,"path":"rotation"}},{"sampler":4,"target":{"node":8,"path":"scale"}}],"samplers":[{"input":10,"output":11,"interpolation":"LINEAR"},{"input":12,"output":13,"interpolation":"LINEAR"},{"input":14,"output":15,"interpolation":"LINEAR"},{"input":16,"output":17,"interpolation":"LINEAR"},{"input":18,"output":19,"interpolation":"LINEAR"}]},{"name":"Cessna208B_Global","channels":[{"sampler":0,"target":{"node":16,"path":"translation"}},{"sampler":1,"target":{"node":16,"path":"rotation"}},{"sampler":2,"target":{"node":7,"path":"translation"}},{"sampler":3,"target":{"node":7,"path":"rotation"}},{"sampler":4,"target":{"node":7,"path":"scale"}}],"samplers":[{"input":20,"output":21,"interpolation":"LINEAR"},{"input":22,"output":23,"interpolation":"LINEAR"},{"input":24,"output":25,"interpolation":"LINEAR"},{"input":26,"output":27,"interpolation":"LINEAR"},{"input":28,"output":29,"interpolation":"LINEAR"}]},{"name":"Cessna208B_Lowboard","channels":[{"sampler":0,"target":{"node":15,"path":"translation"}},{"sampler":1,"target":{"node":15,"path":"rotation"}},{"sampler":2,"target":{"node":6,"path":"translation"}}],"samplers":[{"input":30,"output":31,"interpolation":"LINEAR"},{"input":32,"output":33,"interpolation":"LINEAR"},{"input":34,"output":35,"interpolation":"LINEAR"}]},{"name":"Cessna208B_Overhead","channels":[{"sampler":0,"target":{"node":14,"path":"translation"}},{"sampler":1,"target":{"node":14,"path":"rotation"}},{"sampler":2,"target":{"node":5,"path":"translation"}},{"sampler":3,"target":{"node":5,"path":"rotation"}},{"sampler":4,"target":{"node":5,"path":"scale"}}],"samplers":[{"input":36,"output":37,"interpolation":"LINEAR"},{"input":38,"output":39,"interpolation":"LINEAR"},{"input":40,"output":41,"interpolation":"LINEAR"},{"input":42,"output":43,"interpolation":"LINEAR"},{"input":44,"output":45,"interpolation":"LINEAR"}]},{"name":"Cessna208B_Seat","channels":[{"sampler":0,"target":{"node":13,"path":"translation"}},{"sampler":1,"target":{"node":13,"path":"rotation"}},{"sampler":2,"target":{"node":4,"path":"translation"}},{"sampler":3,"target":{"node":4,"path":"rotation"}},{"sampler":4,"target":{"node":4,"path":"scale"}}],"samplers":[{"input":46,"output":47,"interpolation":"LINEAR"},{"input":48,"output":49,"interpolation":"LINEAR"},{"input":50,"output":51,"interpolation":"LINEAR"},{"input":52,"output":53,"interpolation":"LINEAR"},{"input":54,"output":55,"interpolation":"LINEAR"}]},{"name":"Cessna208B_Throttle","channels":[{"sampler":0,"target":{"node":11,"path":"translation"}},{"sampler":1,"target":{"node":11,"path":"rotation"}},{"sampler":2,"target":{"node":2,"path":"translation"}},{"sampler":3,"target":{"node":2,"path":"rotation"}},{"sampler":4,"target":{"node":2,"path":"scale"}}],"samplers":[{"input":56,"output":57,"interpolation":"LINEAR"},{"input":58,"output":59,"interpolation":"LINEAR"},{"input":60,"output":61,"interpolation":"LINEAR"},{"input":62,"output":63,"interpolation":"LINEAR"},{"input":64,"output":65,"interpolation":"LINEAR"}]},{"name":"Cessna208B_Yoke","channels":[{"sampler":0,"target":{"node":10,"path":"translation"}},{"sampler":1,"target":{"node":10,"path":"rotation"}},{"sampler":2,"target":{"node":1,"path":"translation"}},{"sampler":3,"target":{"node":1,"path":"rotation"}},{"sampler":4,"target":{"node":1,"path":"scale"}}],"samplers":[{"input":66,"output":67,"interpolation":"LINEAR"},{"input":68,"output":69,"interpolation":"LINEAR"},{"input":70,"output":71,"interpolation":"LINEAR"},{"input":72,"output":73,"interpolation":"LINEAR"},{"input":74,"output":75,"interpolation":"LINEAR"}]},{"name":"Cessna208B_TakeCare","channels":[{"sampler":0,"target":{"node":12,"path":"translation"}},{"sampler":1,"target":{"node":12,"path":"rotation"}},{"sampler":2,"target":{"node":3,"path":"translation"}},{"sampler":3,"target":{"node":3,"path":"rotation"}},{"sampler":4,"target":{"node":3,"path":"scale"}}],"samplers":[{"input":76,"output":77,"interpolation":"LINEAR"},{"input":78,"output":79,"interpolation":"LINEAR"},{"input":80,"output":81,"interpolation":"LINEAR"},{"input":82,"output":83,"interpolation":"LINEAR"},{"input":84,"output":85,"interpolation":"LINEAR"}]}],"asset":{"generator":"babylon.js glTF exporter for 3dsmax 2019 v1.5.0","version":"2.0","extensions":{"ASOBO_asset_optimized":{"MajorVersion":4,"MinorVersion":4},"ASOBO_normal_map_convention":{"tangent_space_convention":"DirectX"}}},"bufferViews":[{"buffer":0,"byteLength":28492,"name":"bufferViewAnimationFloatScalar"},{"buffer":0,"byteLength":51672,"byteOffset":28492,"name":"bufferViewAnimationFloatVec3"},{"buffer":0,"byteLength":45072,"byteOffset":80164,"name":"bufferViewAnimationFloatVec4"}],"nodes":[{"translation":[0.0,0.0,0.0],"rotation":[-7.54978942e-8,7.54978942e-8,4.37113954e-8,1.0],"scale":[1.0,1.0,1.0],"name":"Point001","children":[1,2,3,4,5,6,7,8,9,10,11,12,13,14,15,16,17,18]},{"translation":[-0.382712334,-0.211003318,3.48837733],"rotation":[0.755864143,0.02500079,-0.0289120171,0.653611958],"scale":[0.999999762,1.00000012,1.0],"name":"Cessna208B_Yoke_TARGET"},{"translation":[-0.19185254,-0.7399451,2.49665165],"rotation":[0.7558641,0.0250007864,-0.0289120041,0.653611958],"scale":[0.9999999,1.00000024,0.99999994],"name":"Cessna208B_Throttle_TARGET"},{"translation":[-0.03226794,-0.29865092,-0.333530515],"rotation":[0.755864,0.0250007883,-0.0289120022,0.653612],"scale":[0.999999762,1.00000012,0.9999998],"name":"Cessna208B_TakeCare_TARGET"},{"translation":[-0.06833146,-0.229560211,0.4970033],"rotation":[0.7558641,0.02500079,-0.0289120041,0.653611958],"scale":[1.0,1.00000024,1.0],"name":"Cessna208B_Seat_TARGET"},{"translation":[-1.13788204e-7,0.165547624,1.009698],"rotation":[0.7558641,0.0250007771,-0.0289120041,0.653611958],"scale":[1.0,1.0,0.9999999],"name":"Cessna208B_Overhead_TARGET"},{"translation":[0.6266407,-0.673983455,2.18319869],"rotation":[0.7558641,0.0250007827,-0.0289120041,0.653611958],"scale":[1.0,1.00000012,0.99999994],"name":"Cessna208B_Lowboard_TARGET"},{"translation":[-6.261576e-7,-0.635656655,3.52345943],"rotation":[0.7558641,0.0250007957,-0.0289119985,0.653611958],"scale":[0.9999999,1.00000012,0.9999998],"name":"Cessna208B_Global_TARGET"},{"translation":[-5.502932e-7,-0.402007341,3.24305964],"rotation":[0.7558641,0.0250007827,-0.0289120022,0.653611958],"scale":[0.99999994,1.00000012,0.99999994],"name":"Cessna208B_Board02_TARGET"},{"translation":[0.4360687,-0.256111145,2.794128],"rotation":[0.7558641,0.0250007231,-0.0289120134,0.653611958],"scale":[0.9999999,0.99999994,1.00000024],"name":"Cessna208B_Board01_TARGET"},{"translation":[0.512866437,-0.4865379,1.119972],"rotation":[-0.009738363,-0.9822633,0.0532865524,-0.179511845],"scale":[1.00000012,1.00000012,1.00000012],"camera":0,"name":"Cessna208B_Yoke_CAMERA"},{"translation":[0.2503271,-0.5167371,1.162114],"rotation":[0.0125276521,-0.984173357,-0.07764083,-0.15880084],"scale":[0.9999999,1.00000024,1.00000012],"camera":1,"name":"Cessna208B_Throttle_CAMERA"},{"translation":[0.180390924,0.129489511,0.8674738],"rotation":[-0.167348832,0.08626969,0.0147016458,0.982005954],"scale":[1.0,0.9999999,1.00000012],"camera":2,"name":"Cessna208B_TakeCare_CAMERA"},{"translation":[0.400390834,0.0100750364,1.69747412],"rotation":[-0.09020862,0.184268743,0.0169864669,0.97858],"scale":[1.00000012,1.00000036,1.00000024],"camera":3,"name":"Cessna208B_Seat_CAMERA"},{"translation":[0.128904834,-0.04197441,0.5860496],"rotation":[-0.0319861546,-0.965463638,0.2150042,-0.1436316],"scale":[1.0,1.0,1.0],"camera":4,"name":"Cessna208B_Overhead_CAMERA"},{"translation":[0.237507612,-0.438484967,1.11482859],"rotation":[-0.0177127868,-0.9796579,-0.10038662,0.172856227],"scale":[1.0,1.0,0.9999998],"camera":5,"name":"Cessna208B_Lowboard_CAMERA"},{"translation":[3.75868751e-7,0.0239908025,-2.730743],"rotation":[-4.7134133e-8,-0.99862,-0.05251783,-7.849228e-8],"scale":[0.99999994,1.00000024,1.00000012],"camera":6,"name":"Cessna208B_Global_CAMERA"},{"translation":[-1.79101278e-7,-0.246753588,0.874654353],"rotation":[-4.12174472e-8,-0.9994645,-0.0327233374,-7.688783e-8],"scale":[1.0,1.00000024,1.00000012],"camera":7,"name":"Cessna208B_Board02_CAMERA"},{"translation":[-0.0824005455,-0.309904784,1.23180056],"rotation":[0.00260552764,-0.987062037,0.01612395,0.159504846],"scale":[0.999999762,0.99999994,0.99999994],"camera":8,"name":"Cessna208B_Board01_CAMERA"}],"scene":0,"scenes":[{"nodes":[0]}],"cameras":[{"type":"perspective","name":"Cessna208B_Yoke_CAMERA","perspective":{"zfar":1000.0,"znear":0.000001,"yfov":0.8103263}},{"type":"perspective","name":"Cessna208B_Throttle_CAMERA","perspective":{"zfar":1000.0,"znear":0.000001,"yfov":0.8097142}},{"type":"perspective","name":"Cessna208B_TakeCare_CAMERA","perspective":{"zfar":1000.0,"znear":0.000001,"yfov":0.8103903}},{"type":"perspective","name":"Cessna208B_Seat_CAMERA","perspective":{"zfar":1000.0,"znear":0.000001,"yfov":0.8096263}},{"type":"perspective","name":"Cessna208B_Overhead_CAMERA","perspective":{"zfar":1000.0,"znear":0.000001,"yfov":0.810122252}},{"type":"perspective","name":"Cessna208B_Lowboard_CAMERA","perspective":{"zfar":1000.0,"znear":0.000001,"yfov":0.809841633}},{"type":"perspective","name":"Cessna208B_Global_CAMERA","perspective":{"zfar":1000.0,"znear":0.000001,"yfov":0.8096928}},{"type":"perspective","name":"Cessna208B_Board02_CAMERA","perspective":{"zfar":1000.0,"znear":0.000001,"yfov":0.809835136}},{"type":"perspective","name":"Cessna208B_Board01_CAMERA","perspective":{"zfar":1000.0,"znear":0.000001,"yfov":0.8104023}}],"extensionsUsed":["ASOBO_normal_map_convention","ASOBO_asset_optimized"],"buffers":[{"byteLength":125236,"uri":"PlaneShowcase_COCKPIT.bin"}]}
