{"accessors":[{"bufferView":0,"componentType":5126,"count":121,"min":[0.0],"max":[4.0],"type":"SCALAR","name":"accessorAnimationInput"},{"bufferView":1,"componentType":5126,"count":121,"type":"VEC3","name":"accessorAnimationPositions"},{"bufferView":0,"byteOffset":484,"componentType":5126,"count":121,"min":[0.0],"max":[4.0],"type":"SCALAR","name":"accessorAnimationInput"},{"bufferView":2,"componentType":5126,"count":121,"type":"VEC4","name":"accessorAnimationRotations"},{"bufferView":0,"byteOffset":968,"componentType":5126,"count":121,"min":[0.0],"max":[4.0],"type":"SCALAR","name":"accessorAnimationInput"},{"bufferView":1,"byteOffset":1452,"componentType":5126,"count":121,"type":"VEC3","name":"accessorAnimationPositions"},{"bufferView":0,"byteOffset":1452,"componentType":5126,"count":2,"min":[0.0],"max":[5.33333349],"type":"SCALAR","name":"accessorAnimationInput"},{"bufferView":1,"byteOffset":2904,"componentType":5126,"count":2,"type":"VEC3","name":"accessorAnimationScales"},{"bufferView":0,"byteOffset":1460,"componentType":5126,"count":161,"min":[0.0],"max":[5.33333349],"type":"SCALAR","name":"accessorAnimationInput"},{"bufferView":1,"byteOffset":2928,"componentType":5126,"count":161,"type":"VEC3","name":"accessorAnimationPositions"},{"bufferView":0,"byteOffset":2104,"componentType":5126,"count":161,"min":[0.0],"max":[5.33333349],"type":"SCALAR","name":"accessorAnimationInput"},{"bufferView":2,"byteOffset":1936,"componentType":5126,"count":161,"type":"VEC4","name":"accessorAnimationRotations"},{"bufferView":0,"byteOffset":2748,"componentType":5126,"count":161,"min":[0.0],"max":[5.33333349],"type":"SCALAR","name":"accessorAnimationInput"},{"bufferView":1,"byteOffset":4860,"componentType":5126,"count":161,"type":"VEC3","name":"accessorAnimationPositions"},{"bufferView":0,"byteOffset":3392,"componentType":5126,"count":161,"min":[0.0],"max":[5.33333349],"type":"SCALAR","name":"accessorAnimationInput"},{"bufferView":2,"byteOffset":4512,"componentType":5126,"count":161,"type":"VEC4","name":"accessorAnimationRotations"},{"bufferView":0,"byteOffset":4036,"componentType":5126,"count":141,"min":[0.0],"max":[4.66666651],"type":"SCALAR","name":"accessorAnimationInput"},{"bufferView":1,"byteOffset":6792,"componentType":5126,"count":141,"type":"VEC3","name":"accessorAnimationPositions"},{"bufferView":0,"byteOffset":4600,"componentType":5126,"count":141,"min":[0.0],"max":[4.66666651],"type":"SCALAR","name":"accessorAnimationInput"},{"bufferView":2,"byteOffset":7088,"componentType":5126,"count":141,"type":"VEC4","name":"accessorAnimationRotations"},{"bufferView":0,"byteOffset":5164,"componentType":5126,"count":141,"min":[0.0],"max":[4.66666651],"type":"SCALAR","name":"accessorAnimationInput"},{"bufferView":1,"byteOffset":8484,"componentType":5126,"count":141,"type":"VEC3","name":"accessorAnimationScales"},{"bufferView":0,"byteOffset":5728,"componentType":5126,"count":141,"min":[0.0],"max":[4.66666651],"type":"SCALAR","name":"accessorAnimationInput"},{"bufferView":1,"byteOffset":10176,"componentType":5126,"count":141,"type":"VEC3","name":"accessorAnimationPositions"},{"bufferView":0,"byteOffset":6292,"componentType":5126,"count":141,"min":[0.0],"max":[4.66666651],"type":"SCALAR","name":"accessorAnimationInput"},{"bufferView":2,"byteOffset":9344,"componentType":5126,"count":141,"type":"VEC4","name":"accessorAnimationRotations"},{"bufferView":0,"byteOffset":6856,"componentType":5126,"count":121,"min":[0.0],"max":[4.0],"type":"SCALAR","name":"accessorAnimationInput"},{"bufferView":1,"byteOffset":11868,"componentType":5126,"count":121,"type":"VEC3","name":"accessorAnimationPositions"},{"bufferView":0,"byteOffset":7340,"componentType":5126,"count":121,"min":[0.0],"max":[4.0],"type":"SCALAR","name":"accessorAnimationInput"},{"bufferView":2,"byteOffset":11600,"componentType":5126,"count":121,"type":"VEC4","name":"accessorAnimationRotations"},{"bufferView":0,"byteOffset":7824,"componentType":5126,"count":121,"min":[0.0],"max":[4.0],"type":"SCALAR","name":"accessorAnimationInput"},{"bufferView":1,"byteOffset":13320,"componentType":5126,"count":121,"type":"VEC3","name":"accessorAnimationScales"},{"bufferView":0,"byteOffset":8308,"componentType":5126,"count":121,"min":[0.0],"max":[4.0],"type":"SCALAR","name":"accessorAnimationInput"},{"bufferView":1,"byteOffset":14772,"componentType":5126,"count":121,"type":"VEC3","name":"accessorAnimationPositions"},{"bufferView":0,"byteOffset":8792,"componentType":5126,"count":121,"min":[0.0],"max":[4.0],"type":"SCALAR","name":"accessorAnimationInput"},{"bufferView":2,"byteOffset":13536,"componentType":5126,"count":121,"type":"VEC4","name":"accessorAnimationRotations"},{"bufferView":0,"byteOffset":9276,"componentType":5126,"count":101,"min":[0.0],"max":[3.33333325],"type":"SCALAR","name":"accessorAnimationInput"},{"bufferView":1,"byteOffset":16224,"componentType":5126,"count":101,"type":"VEC3","name":"accessorAnimationPositions"},{"bufferView":0,"byteOffset":9680,"componentType":5126,"count":101,"min":[0.0],"max":[3.33333325],"type":"SCALAR","name":"accessorAnimationInput"},{"bufferView":2,"byteOffset":15472,"componentType":5126,"count":101,"type":"VEC4","name":"accessorAnimationRotations"},{"bufferView":0,"byteOffset":10084,"componentType":5126,"count":101,"min":[0.0],"max":[3.33333325],"type":"SCALAR","name":"accessorAnimationInput"},{"bufferView":1,"byteOffset":17436,"componentType":5126,"count":101,"type":"VEC3","name":"accessorAnimationPositions"},{"bufferView":0,"byteOffset":10488,"componentType":5126,"count":101,"min":[0.0],"max":[3.33333325],"type":"SCALAR","name":"accessorAnimationInput"},{"bufferView":1,"byteOffset":18648,"componentType":5126,"count":101,"type":"VEC3","name":"accessorAnimationPositions"},{"bufferView":0,"byteOffset":10892,"componentType":5126,"count":101,"min":[0.0],"max":[3.33333325],"type":"SCALAR","name":"accessorAnimationInput"},{"bufferView":2,"byteOffset":17088,"componentType":5126,"count":101,"type":"VEC4","name":"accessorAnimationRotations"},{"bufferView":0,"byteOffset":11296,"componentType":5126,"count":2,"min":[0.0],"max":[3.33333325],"type":"SCALAR","name":"accessorAnimationInput"},{"bufferView":1,"byteOffset":19860,"componentType":5126,"count":2,"type":"VEC3","name":"accessorAnimationScales"},{"bufferView":0,"byteOffset":11304,"componentType":5126,"count":121,"min":[0.0],"max":[4.0],"type":"SCALAR","name":"accessorAnimationInput"},{"bufferView":1,"byteOffset":19884,"componentType":5126,"count":121,"type":"VEC3","name":"accessorAnimationPositions"},{"bufferView":0,"byteOffset":11788,"componentType":5126,"count":121,"min":[0.0],"max":[4.0],"type":"SCALAR","name":"accessorAnimationInput"},{"bufferView":2,"byteOffset":18704,"componentType":5126,"count":121,"type":"VEC4","name":"accessorAnimationRotations"},{"bufferView":0,"byteOffset":12272,"componentType":5126,"count":121,"min":[0.0],"max":[4.0],"type":"SCALAR","name":"accessorAnimationInput"},{"bufferView":1,"byteOffset":21336,"componentType":5126,"count":121,"type":"VEC3","name":"accessorAnimationScales"},{"bufferView":0,"byteOffset":12756,"componentType":5126,"count":121,"min":[0.0],"max":[4.0],"type":"SCALAR","name":"accessorAnimationInput"},{"bufferView":1,"byteOffset":22788,"componentType":5126,"count":121,"type":"VEC3","name":"accessorAnimationPositions"},{"bufferView":0,"byteOffset":13240,"componentType":5126,"count":121,"min":[0.0],"max":[4.0],"type":"SCALAR","name":"accessorAnimationInput"},{"bufferView":2,"byteOffset":20640,"componentType":5126,"count":121,"type":"VEC4","name":"accessorAnimationRotations"}],"animations":[{"name":"Cessna208B_TOP","channels":[{"sampler":0,"target":{"node":15,"path":"translation"}},{"sampler":1,"target":{"node":15,"path":"rotation"}},{"sampler":2,"target":{"node":7,"path":"translation"}}],"samplers":[{"input":0,"output":1,"interpolation":"LINEAR"},{"input":2,"output":3,"interpolation":"LINEAR"},{"input":4,"output":5,"interpolation":"LINEAR"}]},{"name":"Cessna208B_OverviewBackRight","channels":[{"sampler":0,"target":{"node":6,"path":"scale"}},{"sampler":1,"target":{"node":14,"path":"translation"}},{"sampler":2,"target":{"node":14,"path":"rotation"}}],"samplers":[{"input":6,"output":7,"interpolation":"LINEAR"},{"input":8,"output":9,"interpolation":"LINEAR"},{"input":10,"output":11,"interpolation":"LINEAR"}]},{"name":"Cessna208B_OverviewBack","channels":[{"sampler":0,"target":{"node":13,"path":"translation"}},{"sampler":1,"target":{"node":13,"path":"rotation"}}],"samplers":[{"input":12,"output":13,"interpolation":"LINEAR"},{"input":14,"output":15,"interpolation":"LINEAR"}]},{"name":"Cessna208B_FrontUp","channels":[{"sampler":0,"target":{"node":4,"path":"translation"}},{"sampler":1,"target":{"node":4,"path":"rotation"}},{"sampler":2,"target":{"node":4,"path":"scale"}},{"sampler":3,"target":{"node":12,"path":"translation"}},{"sampler":4,"target":{"node":12,"path":"rotation"}}],"samplers":[{"input":16,"output":17,"interpolation":"LINEAR"},{"input":18,"output":19,"interpolation":"LINEAR"},{"input":20,"output":21,"interpolation":"LINEAR"},{"input":22,"output":23,"interpolation":"LINEAR"},{"input":24,"output":25,"interpolation":"LINEAR"}]},{"name":"Cessna208B_FrontClose","channels":[{"sampler":0,"target":{"node":8,"path":"translation"}},{"sampler":1,"target":{"node":8,"path":"rotation"}},{"sampler":2,"target":{"node":8,"path":"scale"}},{"sampler":3,"target":{"node":16,"path":"translation"}},{"sampler":4,"target":{"node":16,"path":"rotation"}}],"samplers":[{"input":26,"output":27,"interpolation":"LINEAR"},{"input":28,"output":29,"interpolation":"LINEAR"},{"input":30,"output":31,"interpolation":"LINEAR"},{"input":32,"output":33,"interpolation":"LINEAR"},{"input":34,"output":35,"interpolation":"LINEAR"}]},{"name":"Cessna208B_Closeup2","channels":[{"sampler":0,"target":{"node":11,"path":"translation"}},{"sampler":1,"target":{"node":11,"path":"rotation"}},{"sampler":2,"target":{"node":3,"path":"translation"}}],"samplers":[{"input":36,"output":37,"interpolation":"LINEAR"},{"input":38,"output":39,"interpolation":"LINEAR"},{"input":40,"output":41,"interpolation":"LINEAR"}]},{"name":"Cessna208B_Closeup1","channels":[{"sampler":0,"target":{"node":10,"path":"translation"}},{"sampler":1,"target":{"node":10,"path":"rotation"}},{"sampler":2,"target":{"node":2,"path":"scale"}}],"samplers":[{"input":42,"output":43,"interpolation":"LINEAR"},{"input":44,"output":45,"interpolation":"LINEAR"},{"input":46,"output":47,"interpolation":"LINEAR"}]},{"name":"Cessna208B_Close","channels":[{"sampler":0,"target":{"node":1,"path":"translation"}},{"sampler":1,"target":{"node":1,"path":"rotation"}},{"sampler":2,"target":{"node":1,"path":"scale"}},{"sampler":3,"target":{"node":9,"path":"translation"}},{"sampler":4,"target":{"node":9,"path":"rotation"}}],"samplers":[{"input":48,"output":49,"interpolation":"LINEAR"},{"input":50,"output":51,"interpolation":"LINEAR"},{"input":52,"output":53,"interpolation":"LINEAR"},{"input":54,"output":55,"interpolation":"LINEAR"},{"input":56,"output":57,"interpolation":"LINEAR"}]}],"asset":{"generator":"babylon.jsglTFexporterfor3dsmax2019v1.5.0","version":"2.0","extensions":{"ASOBO_asset_optimized":{"MajorVersion":4,"MinorVersion":4},"ASOBO_normal_map_convention":{"tangent_space_convention":"DirectX"}}},"bufferViews":[{"buffer":0,"byteLength":13724,"name":"bufferViewAnimationFloatScalar"},{"buffer":0,"byteLength":24240,"byteOffset":13724,"name":"bufferViewAnimationFloatVec3"},{"buffer":0,"byteLength":22576,"byteOffset":37964,"name":"bufferViewAnimationFloatVec4"}],"nodes":[{"translation":[0.0,0.0,0.0],"rotation":[0.0,0.0,0.0,1.0],"scale":[1.0,1.0,1.0],"name":"Point001","children":[1,2,3,4,5,6,7,8,9,10,11,12,13,14,15,16]},{"translation":[-1.76515317,-0.499542177,-1.4607749],"rotation":[0.030012697,-8.739468e-11,-0.0316526368,0.999048233],"scale":[1.0,1.0,0.99999994],"name":"Cessna208B_Close_TARGET"},{"translation":[0.759557843,0.0584551655,0.384499252],"rotation":[-9.313226e-10,4.4761701899999999e-8,-9.313228e-10,1.0],"scale":[0.999999762,0.9999998,0.999999762],"name":"Cessna208B_Closeup1_TARGET"},{"translation":[0.7640581,0.6228256,0.8757534],"rotation":[-9.313226e-10,4.4761701899999999e-8,-9.313228e-10,1.0],"scale":[0.999999762,0.9999998,0.999999762],"name":"Cessna208B_Closeup2_TARGET"},{"translation":[-0.268888474,2.4910183,3.48146749],"rotation":[-5.551115e-16,3.0755487e-8,9.313231e-10,1.0],"scale":[0.9999997,0.9999999,0.9999994],"name":"Cessna208B_FrontUp_TARGET"},{"translation":[-1.57332039,-0.118565559,4.540101],"rotation":[0.0,0.0,0.0,1.0],"scale":[0.9999997,0.9999999,0.9999998],"name":"Cessna208B_OverviewBack_TARGET"},{"translation":[33.7196579,-1.39683914,23.3604088],"rotation":[-0.007462605,0.300419569,-0.0429764129,0.9528093],"scale":[0.99999994,0.9999999,0.99999994],"name":"Cessna208B_OverviewBackRight_TARGET"},{"translation":[3.7477994,-1.68719292,1.16772175],"rotation":[-9.313226e-10,4.4761701899999999e-8,-9.313228e-10,1.0],"scale":[0.999999762,0.9999998,0.999999762],"name":"Cessna208B_TOP_TARGET"},{"translation":[-1.02294254,1.21384025,0.0],"rotation":[0.0,0.0,0.0,1.0],"scale":[1.0,1.0,1.0],"name":"Cessna208B_FrontClose_TARGET"},{"translation":[18.33778,0.352036148,17.6005974],"rotation":[-0.014115274,0.394884884,0.00606782734,0.9186021],"scale":[0.99999994,1.0,1.0],"camera":0,"name":"Cessna208B_Close_CAMERA"},{"translation":[7.636927,-2.037693,10.3020763],"rotation":[0.08196166,0.2974339,-0.0256376714,0.9508723],"scale":[0.9999998,0.9999999,0.9999998],"camera":1,"name":"Cessna208B_Closeup1_CAMERA"},{"translation":[7.652178,-0.511482239,-16.9277],"rotation":[-0.005445637,-0.982580543,0.0291670263,-0.183453292],"scale":[0.9999999,1.00000012,0.99999994],"camera":2,"name":"Cessna208B_Closeup2_CAMERA"},{"translation":[-20.7849274,5.23070526,104.760071],"rotation":[-0.0131866634,-0.09975791,-0.00132218376,0.9949235],"scale":[1.0,1.0,0.99999994],"camera":3,"name":"Cessna208B_FrontUp_CAMERA"},{"translation":[11.02684,0.537505,-31.0509014],"rotation":[0.00147086382,-0.9855258,-0.008561969,-0.169302836],"scale":[1.0,1.0,1.0],"camera":4,"name":"Cessna208B_OverviewBack_CAMERA"},{"translation":[-24.2737083,0.195877433,-15.79339],"rotation":[-0.00533974171,-0.882992744,-0.0100478828,0.4692488],"scale":[1.0,1.00000012,0.99999994],"camera":5,"name":"Cessna208B_OverviewBackRight_CAMERA"},{"translation":[18.3566914,73.4950256,-11.8973656],"rotation":[0.249639913,-0.7223292,-0.558168948,-0.323060244],"scale":[1.0,0.999999762,1.0],"camera":6,"name":"Cessna208B_TOP_CAMERA"},{"translation":[-7.781376,-1.2559042,11.81121],"rotation":[0.0866377056,-0.2559161,0.0230350122,0.962533236],"scale":[1.0,1.0,0.99999994],"camera":7,"name":"Cessna208B_FrontClose_CAMERA"},{"translation":[0.0,0.0,0.0],"rotation":[0.0,0.0,0.0,1.0],"scale":[1.0,1.0,1.0],"name":"Defaultlight"}],"scene":0,"scenes":[{"nodes":[0,17]}],"cameras":[{"type":"perspective","name":"Cessna208B_Close_CAMERA","perspective":{"zfar":10000.0,"znear":0.1,"yfov":0.457822353}},{"type":"perspective","name":"Cessna208B_Closeup1_CAMERA","perspective":{"zfar":10000.0,"znear":0.1,"yfov":0.457822353}},{"type":"perspective","name":"Cessna208B_Closeup2_CAMERA","perspective":{"zfar":10000.0,"znear":0.1,"yfov":0.5018848}},{"type":"perspective","name":"Cessna208B_FrontUp_CAMERA","perspective":{"zfar":10000.0,"znear":0.1,"yfov":0.457822353}},{"type":"perspective","name":"Cessna208B_OverviewBack_CAMERA","perspective":{"zfar":10000.0,"znear":0.1,"yfov":0.309496}},{"type":"perspective","name":"Cessna208B_OverviewBackRight_CAMERA","perspective":{"zfar":10000.0,"znear":0.1,"yfov":0.340615183}},{"type":"perspective","name":"Cessna208B_TOP_CAMERA","perspective":{"zfar":10000.0,"znear":0.1,"yfov":0.457822353}},{"type":"perspective","name":"Cessna208B_FrontClose_CAMERA","perspective":{"zfar":10000.0,"znear":0.1,"yfov":0.393236458}}],"extensionsUsed":["ASOBO_normal_map_convention","ASOBO_asset_optimized"],"buffers":[{"byteLength":60540,"uri":"PlaneShowcase_Overview.bin"}]}
