{"accessors":[{"bufferView":0,"componentType":5126,"count":1001,"min":[0.0],"max":[33.3333321],"type":"SCALAR","name":"accessorAnimationInput"},{"bufferView":1,"componentType":5126,"count":1001,"type":"VEC4","name":"accessorAnimationRotations"}],"animations":[{"name":"208B_Thumbnail","channels":[{"sampler":0,"target":{"node":2,"path":"rotation"}}],"samplers":[{"input":0,"output":1,"interpolation":"LINEAR"}]}],"asset":{"generator":"babylon.jsglTFexporterfor3dsmax2019v1.5.0","version":"2.0","extensions":{"ASOBO_asset_optimized":{"MajorVersion":4,"MinorVersion":4},"ASOBO_normal_map_convention":{"tangent_space_convention":"DirectX"}}},"bufferViews":[{"buffer":0,"byteLength":4004,"name":"bufferViewAnimationFloatScalar"},{"buffer":0,"byteLength":16016,"byteOffset":4004,"name":"bufferViewAnimationFloatVec4"}],"nodes":[{"translation":[0.9190409,-0.570880234,-0.997751534],"rotation":[0.5557908,0.277845562,-0.204141572,0.756455362],"scale":[1.0,1.0,1.0],"name":"208B_Thumbnail_TARGET"},{"translation":[0.0,0.0,0.0],"rotation":[0.0,0.0,0.0,1.0],"scale":[1.0,1.0,1.0],"name":"Defaultlight"},{"translation":[-3.90236163,-0.327616036,11.42422],"rotation":[-0.008971155,-0.184055,-0.00167995691,0.982873559],"scale":[1.0,1.0,1.0],"camera":0,"name":"208B_Thumbnail_CAMERA"}],"scene":0,"scenes":[{"nodes":[0,1,2]}],"cameras":[{"type":"perspective","name":"208B_Thumbnail_CAMERA","perspective":{"zfar":1000.0,"znear":1.0,"yfov":0.721483648}}],"extensionsUsed":["ASOBO_normal_map_convention","ASOBO_asset_optimized"],"buffers":[{"byteLength":20020,"uri":"Thumbnail.bin"}]}
